# Blender v2.80 (sub 75) OBJ File: 'Pine2.blend'
# www.blender.org
mtllib Pine.mtl
o Cylinder
v -0.091616 -0.077830 1.159589
v -0.053681 0.035582 1.148664
v 0.043743 0.106969 1.138823
v 0.163558 0.108703 1.135735
v 0.258704 0.041400 1.132373
v 0.294218 -0.069427 1.133241
v 0.255307 -0.182341 1.136870
v 0.155839 -0.255331 1.142455
v 0.034216 -0.260164 1.148087
v -0.059294 -0.191650 1.157979
v -0.785044 -0.104078 2.067760
v -0.548553 -0.111688 3.007729
v -0.312643 0.194854 3.891829
v -0.185925 0.399558 3.902904
v -0.578819 0.328622 2.940097
v -0.745571 0.489204 1.969139
v 0.012171 0.493337 3.881812
v -0.286908 0.586559 3.006334
v -0.306042 0.924926 1.801481
v 0.226596 0.442980 3.953573
v 0.098752 0.684403 2.870237
v 0.300289 0.953754 2.050524
v 0.395678 0.266323 3.899651
v 0.474470 0.535384 3.000002
v 0.841393 0.683429 1.904233
v 0.435887 0.018231 3.919240
v 0.705689 0.202526 2.882233
v 1.109394 0.132571 1.902728
v 0.312372 -0.169060 3.883526
v 0.686612 -0.188393 3.007662
v 1.030542 -0.493971 1.773527
v 0.074975 -0.214504 3.969242
v 0.446572 -0.509458 2.878676
v 0.571535 -0.942283 1.868731
v -0.158502 -0.130471 3.927484
v 0.055162 -0.606351 2.992867
v -0.073017 -1.067312 1.767030
v -0.306850 -0.003776 3.963462
v -0.328885 -0.467371 2.871892
v -0.586365 -0.721562 1.998895
v -0.376372 0.354336 2.242254
v -0.076336 0.544708 2.256123
v 0.287225 0.514898 2.340162
v 0.572560 0.300391 2.317297
v 0.688574 -0.036650 2.241229
v 0.576485 -0.385665 2.215327
v 0.275381 -0.605030 2.207905
v -0.100279 -0.602300 2.209867
v -0.359937 -0.346749 2.316776
v -0.462612 0.017283 2.347230
v -0.246752 0.008327 3.318395
v -0.233532 0.218251 3.348312
v -0.085550 0.327971 3.317990
v 0.107658 0.352535 3.311775
v 0.278813 0.262201 3.314548
v 0.371158 0.093357 3.318985
v 0.340448 -0.093378 3.320816
v 0.208501 -0.229535 3.319757
v 0.017945 -0.262093 3.306463
v -0.155864 -0.171791 3.313025
v -0.131851 0.071937 4.207514
v -0.119327 0.179987 4.191560
v -0.055943 0.255503 4.205640
v 0.038516 0.272444 4.231584
v 0.143317 0.230124 4.226013
v 0.213820 0.141389 4.202212
v 0.196794 0.042133 4.205475
v 0.099608 -0.017232 4.239517
v -0.012454 -0.029402 4.245039
v -0.095974 -0.004525 4.231130
v -0.131558 0.017826 4.765353
v -0.078681 -0.026289 4.752655
v 0.003285 -0.056470 4.767394
v 0.088585 -0.038660 4.737139
v 0.131642 0.026813 4.749745
v 0.117820 0.114816 4.742830
v 0.057120 0.175973 4.761863
v -0.017423 0.195088 4.736534
v -0.087975 0.161246 4.743979
v -0.132580 0.089136 4.740070
v -1.137747 0.327182 0.386450
v -0.696061 0.982867 0.547826
v 0.038019 1.244048 0.397470
v 0.778934 1.030282 0.559123
v 1.262339 0.419851 0.378242
v 1.287402 -0.359744 0.550621
v 0.853047 -1.017058 0.382662
v 0.104163 -1.335067 0.606382
v -0.656962 -1.165033 0.482802
v -1.094926 -0.474340 0.669174
v -0.281244 -0.077244 -0.071320
v -0.205597 0.142720 -0.081554
v -0.027948 0.277284 -0.087531
v 0.184345 0.274789 -0.083845
v 0.348808 0.142487 -0.086156
v 0.408759 -0.069588 -0.085098
v 0.341282 -0.281908 -0.083194
v 0.166726 -0.417215 -0.077654
v -0.050163 -0.423697 -0.069483
v -0.222628 -0.294717 -0.065754
v 0.295947 -0.260228 0.432089
v 0.350899 -0.101336 0.426654
v 0.306705 0.055189 0.424831
v 0.181946 0.150808 0.428787
v -0.115697 0.047380 0.440380
v -0.175080 -0.116261 0.451117
v 0.020141 0.149387 0.430916
v -0.133869 -0.276449 0.455812
v -0.004885 -0.370130 0.451247
v 0.160323 -0.362950 0.441226
v -0.263337 0.126451 4.629276
v -0.218153 0.002324 4.604742
v -0.109017 -0.128351 4.633218
v 0.048830 -0.176709 4.574767
v 0.184576 -0.109360 4.599121
v 0.245418 0.051848 4.585762
v 0.203842 0.210763 4.622533
v 0.095781 0.316923 4.573596
v -0.054229 0.327074 4.587980
v -0.198325 0.249419 4.580429
v -0.133028 0.045986 5.261572
v -0.118968 0.006622 5.253836
v -0.084209 -0.034183 5.262815
v -0.035337 -0.050495 5.244383
v 0.007763 -0.028913 5.252063
v 0.026869 0.021830 5.247850
v 0.014257 0.072529 5.259446
v -0.020452 0.105263 5.244014
v -0.067558 0.108699 5.248550
v -0.113123 0.084064 5.246168
v -0.127072 0.169005 5.213332
v -0.168086 0.101743 5.198700
v -0.185991 0.001199 5.215682
v -0.151808 -0.087648 5.180824
v -0.068424 -0.125665 5.195348
v 0.028618 -0.092698 5.187382
v 0.088032 -0.014769 5.209309
v 0.094025 0.076799 5.180126
v 0.042779 0.149366 5.188704
v -0.047885 0.186904 5.184201
v -0.044285 0.030991 5.568133
v -0.044285 0.030991 5.568133
v -0.044285 0.030991 5.568133
v -0.044285 0.030991 5.568133
v -0.044285 0.030991 5.568133
v -0.044285 0.030991 5.568133
v -0.044285 0.030991 5.568133
v -0.044285 0.030991 5.568133
v -0.044285 0.030991 5.568133
v -0.044285 0.030991 5.568133
vt 0.100000 0.585058
vt 0.100000 0.585058
vt -0.000000 0.585058
vt -0.000000 0.585058
vt 0.100000 0.685058
vt 0.100000 0.685058
vt -0.000000 0.685058
vt -0.000000 0.685058
vt 0.100000 0.785058
vt 0.100000 0.785058
vt -0.000000 0.785058
vt -0.000000 0.785058
vt 0.200000 0.585058
vt 0.200000 0.585058
vt 0.200000 0.685058
vt 0.200000 0.685058
vt 0.200000 0.785058
vt 0.200000 0.785058
vt 0.300000 0.585058
vt 0.300000 0.585058
vt 0.300000 0.685058
vt 0.300000 0.685058
vt 0.300000 0.785058
vt 0.300000 0.785058
vt 0.400000 0.585058
vt 0.400000 0.585058
vt 0.400000 0.685058
vt 0.400000 0.685058
vt 0.400000 0.785058
vt 0.400000 0.785058
vt 0.500000 0.585058
vt 0.500000 0.585058
vt 0.500000 0.685058
vt 0.500000 0.685058
vt 0.500000 0.785058
vt 0.500000 0.785058
vt 0.600000 0.585058
vt 0.600000 0.585058
vt 0.600000 0.685058
vt 0.600000 0.685058
vt 0.600000 0.785058
vt 0.600000 0.785058
vt 0.700000 0.585058
vt 0.700000 0.585058
vt 0.700000 0.685058
vt 0.700000 0.685058
vt 0.700000 0.785058
vt 0.700000 0.785058
vt 0.800000 0.585058
vt 0.800000 0.585058
vt 0.800000 0.685058
vt 0.800000 0.685058
vt 0.800000 0.785058
vt 0.800000 0.785058
vt 0.900000 0.585058
vt 0.900000 0.585058
vt 0.900000 0.685058
vt 0.900000 0.685058
vt 0.900000 0.785058
vt 0.900000 0.785058
vt 1.000000 0.585058
vt 1.000000 0.585058
vt 1.000000 0.685058
vt 1.000000 0.685058
vt 1.000000 0.785058
vt 1.000000 0.785058
vt 1.000000 0.502296
vt 0.900000 0.502296
vt 0.800000 0.502296
vt 0.700000 0.502295
vt 0.600000 0.502296
vt 0.500000 0.502296
vt 0.400000 0.502296
vt 0.300000 0.502296
vt 0.200000 0.502296
vt 0.100000 0.502296
vt -0.000000 0.502296
vt 0.400000 0.785058
vt 0.300000 0.785058
vt 0.500000 0.785058
vt 0.600000 0.785058
vt 0.700000 0.785058
vt 0.800000 0.785058
vt 0.900000 0.785058
vt 0.100000 0.785058
vt -0.000000 0.785058
vt 1.000000 0.785058
vt 0.200000 0.785058
vt 0.100000 0.500000
vt -0.000000 0.500000
vt 0.200000 0.500000
vt 0.300000 0.500000
vt 0.400000 0.500000
vt 0.500000 0.500000
vt 0.600000 0.500000
vt 0.700000 0.500000
vt 0.800000 0.500000
vt 0.900000 0.500000
vt 1.000000 0.500000
vt 0.700000 0.785058
vt 0.600000 0.785058
vt 0.500000 0.785058
vt 0.900000 0.785058
vt 0.800000 0.785058
vt 0.400000 0.785058
vt 0.300000 0.785058
vt 1.000000 0.785058
vt 0.200000 0.785058
vt 0.100000 0.785058
vt -0.000000 0.785058
vt 0.100000 0.785058
vt -0.000000 0.785058
vt 0.700000 0.785058
vt 0.600000 0.785058
vt 0.400000 0.785058
vt 0.300000 0.785058
vt 1.000000 0.785058
vt 0.900000 0.785058
vt 0.500000 0.785058
vt 0.200000 0.785058
vt 0.800000 0.785058
vt 0.700000 0.785058
vt 0.600000 0.785058
vt 0.400000 0.785058
vt 0.300000 0.785058
vt 1.000000 0.785058
vt 0.900000 0.785058
vt 0.500000 0.785058
vt 0.200000 0.785058
vt 0.100000 0.785058
vt 0.800000 0.785058
vt -0.000000 0.785058
vt 0.400000 0.785058
vt 0.300000 0.785058
vt 1.000000 0.785058
vt 0.900000 0.785058
vt 0.500000 0.785058
vt 0.200000 0.785058
vt 0.100000 0.785058
vt 0.800000 0.785058
vt 0.700000 0.785058
vt 0.600000 0.785058
vt -0.000000 0.785058
vt 0.500000 0.500000
vt 0.400000 0.500000
vt 0.400000 0.500000
vt 0.500000 0.500000
vt 0.750000 0.490000
vt 0.891068 0.444164
vt 0.978254 0.324164
vt 0.978254 0.175836
vt 0.891068 0.055836
vt 0.750000 0.010000
vt 0.608932 0.055836
vt 0.521746 0.175836
vt 0.521746 0.324164
vt 0.608932 0.444164
vt 0.600000 0.500000
vt 0.600000 0.500000
vt 0.700000 0.500000
vt 0.700000 0.500000
vt 1.000000 0.500000
vt 0.900000 0.500000
vt 0.900000 0.500000
vt 1.000000 0.500000
vt 0.800000 0.500000
vt 0.800000 0.500000
vt 0.100000 0.500000
vt -0.000000 0.500000
vt -0.000000 0.500000
vt 0.100000 0.500000
vt 0.200000 0.500000
vt 0.200000 0.500000
vt 0.300000 0.500000
vt 0.300000 0.500000
vn 0.5941 0.2595 -0.7614
vn 0.5769 0.5038 -0.6429
vn 0.8210 -0.0718 -0.5664
vn 0.1687 0.6394 -0.7501
vn 0.4018 0.6616 -0.6332
vn 0.4685 0.7777 -0.4191
vn -0.0131 0.6952 -0.7187
vn -0.2700 0.6913 -0.6702
vn 0.2264 0.8405 -0.4923
vn -0.4921 0.4633 -0.7370
vn -0.4803 0.5783 -0.6595
vn -0.4233 0.7141 -0.5575
vn -0.6552 0.2420 -0.7157
vn -0.7370 -0.0842 -0.6706
vn -0.6850 0.4046 -0.6059
vn -0.6379 -0.2112 -0.7406
vn -0.6985 -0.3042 -0.6477
vn -0.7810 -0.2496 -0.5725
vn -0.4416 -0.4907 -0.7511
vn -0.1720 -0.7480 -0.6410
vn -0.5728 -0.5518 -0.6062
vn 0.2563 -0.6120 -0.7481
vn 0.0138 -0.7851 -0.6193
vn 0.0788 -0.8402 -0.5365
vn 0.3572 -0.5982 -0.7173
vn 0.5096 -0.5446 -0.6661
vn 0.4494 -0.7163 -0.5338
vn 0.6018 -0.2475 -0.7593
vn 0.7432 -0.0193 -0.6688
vn 0.7777 -0.3544 -0.5192
vn -0.9269 0.1522 0.3432
vn -0.7387 0.5746 0.3525
vn -0.1746 0.9251 0.3373
vn 0.3216 0.8822 0.3441
vn 0.8366 0.4412 0.3248
vn 0.9405 -0.0286 0.3386
vn 0.6910 -0.6450 0.3265
vn 0.3185 -0.8749 0.3648
vn -0.3595 -0.8469 0.3918
vn -0.7855 -0.4823 0.3878
vn -0.9228 0.0925 0.3741
vn -0.5645 0.7405 0.3647
vn -0.1791 0.9027 0.3912
vn 0.4754 0.7684 0.4285
vn 0.8040 0.4044 0.4359
vn 0.8757 -0.1877 0.4449
vn 0.6621 -0.5963 0.4540
vn 0.1036 -0.8831 0.4577
vn -0.3603 -0.8154 0.4530
vn -0.8452 -0.3449 0.4083
vn -0.9415 0.0208 0.3363
vn -0.6857 0.6533 0.3210
vn -0.1606 0.9450 0.2849
vn 0.2864 0.9113 0.2959
vn 0.8163 0.4727 0.3319
vn 0.9320 0.0263 0.3616
vn 0.6362 -0.6626 0.3952
vn 0.2841 -0.8708 0.4014
vn -0.3994 -0.8428 0.3608
vn -0.7713 -0.5425 0.3328
vn 0.2605 -0.9421 0.2111
vn 0.7731 -0.5647 0.2890
vn 0.9251 0.1753 0.3367
vn 0.7254 0.5944 0.3471
vn 0.1136 0.9364 0.3319
vn -0.3848 0.8754 0.2925
vn -0.9757 0.0518 0.2128
vn -0.8314 0.5016 0.2390
vn -0.6169 -0.7713 0.1564
vn -0.3603 -0.9206 0.1505
vn 0.3068 0.3829 -0.8714
vn 0.2399 0.4494 -0.8605
vn -0.3750 0.4266 -0.8230
vn -0.3790 0.4561 -0.8052
vn -0.5333 -0.1557 -0.8315
vn -0.5440 -0.1872 -0.8179
vn -0.0146 -0.5233 -0.8520
vn 0.0176 -0.5460 -0.8376
vn 0.5006 -0.1954 -0.8433
vn 0.5063 -0.2611 -0.8219
vn -0.7310 -0.1723 -0.6602
vn -0.8244 0.1104 -0.5551
vn 0.0142 -0.7457 -0.6661
vn -0.0932 0.8346 -0.5430
vn 0.4977 -0.5775 -0.6471
vn 0.7284 0.5226 -0.4431
vn 0.5003 -0.4476 -0.7412
vn -0.2626 -0.7458 -0.6123
vn 0.5877 0.5353 -0.6067
vn -0.3825 0.6869 -0.6179
vn -0.8179 0.5251 0.2352
vn 0.9339 0.1687 0.3153
vn -0.2434 -0.9580 0.1514
vn -0.4681 0.8418 0.2689
vn 0.4029 -0.8888 0.2184
vn -0.9210 -0.3621 0.1434
vn 0.5754 0.7464 0.3344
vn -0.7733 -0.6220 0.1229
vn 0.0953 0.9445 0.3144
vn 0.9046 -0.3177 0.2842
vn -0.3398 0.3510 -0.8725
vn 0.3480 0.6277 -0.6963
vn -0.0207 -0.6321 -0.7746
vn 0.2114 0.4670 -0.8586
vn 0.8311 -0.0952 -0.5478
vn -0.6399 -0.3863 -0.6643
vn 0.4983 -0.0988 -0.8613
vn -0.4231 -0.4080 -0.8090
vn -0.4683 0.5490 -0.6924
vn -0.1913 -0.3811 -0.9045
vn -0.8119 -0.4556 0.3650
vn 0.3433 0.8713 0.3506
vn -0.4379 -0.8183 0.3722
vn -0.8294 0.4275 0.3598
vn 0.9391 0.0470 0.3403
vn -0.9112 0.2210 0.3477
vn 0.7864 0.5150 0.3411
vn 0.3270 -0.8786 0.3480
vn -0.0706 0.9240 0.3759
vn 0.7000 -0.6289 0.3383
vn 0.9462 -0.3102 0.0920
vn -0.0189 -0.0182 -0.9997
vn 0.9545 0.2707 0.1248
vn 0.6107 0.7698 0.1854
vn -0.9174 0.3347 0.2153
vn 0.0018 0.9715 0.2372
vn -0.5765 0.7799 0.2438
vn -0.9534 -0.2473 0.1731
vn -0.5867 -0.7992 0.1305
vn 0.0404 -0.9940 0.1016
vn 0.6090 -0.7882 0.0884
vn 0.5990 -0.7911 0.1236
vn 0.0497 -0.9871 0.1524
vn -0.5749 -0.8027 0.1585
vn -0.9580 -0.2556 0.1297
vn -0.5917 0.8034 0.0665
vn -0.0101 0.9982 0.0597
vn -0.9374 0.3363 0.0899
vn 0.5955 0.8011 0.0596
vn 0.9560 0.2857 0.0671
vn 0.9423 -0.3224 0.0901
usemtl Leafs
s off
f 49/1/1 40/2/1 11/3/1 50/4/1
f 60/5/2 39/6/2 12/7/2 51/8/2
f 70/9/3 38/10/3 13/11/3 61/12/3
f 48/13/4 37/14/4 40/2/4 49/1/4
f 59/15/5 36/16/5 39/6/5 60/5/5
f 69/17/6 35/18/6 38/10/6 70/9/6
f 47/19/7 34/20/7 37/14/7 48/13/7
f 58/21/8 33/22/8 36/16/8 59/15/8
f 68/23/9 32/24/9 35/18/9 69/17/9
f 46/25/10 31/26/10 34/20/10 47/19/10
f 57/27/11 30/28/11 33/22/11 58/21/11
f 67/29/12 29/30/12 32/24/12 68/23/12
f 45/31/13 28/32/13 31/26/13 46/25/13
f 56/33/14 27/34/14 30/28/14 57/27/14
f 66/35/15 26/36/15 29/30/15 67/29/15
f 44/37/16 25/38/16 28/32/16 45/31/16
f 55/39/17 24/40/17 27/34/17 56/33/17
f 65/41/18 23/42/18 26/36/18 66/35/18
f 43/43/19 22/44/19 25/38/19 44/37/19
f 54/45/20 21/46/20 24/40/20 55/39/20
f 64/47/21 20/48/21 23/42/21 65/41/21
f 42/49/22 19/50/22 22/44/22 43/43/22
f 53/51/23 18/52/23 21/46/23 54/45/23
f 63/53/24 17/54/24 20/48/24 64/47/24
f 41/55/25 16/56/25 19/50/25 42/49/25
f 52/57/26 15/58/26 18/52/26 53/51/26
f 62/59/27 14/60/27 17/54/27 63/53/27
f 50/61/28 11/62/28 16/56/28 41/55/28
f 51/63/29 12/64/29 15/58/29 52/57/29
f 61/65/30 13/66/30 14/60/30 62/59/30
f 90/67/31 50/61/31 41/55/31 81/68/31
f 81/68/32 41/55/32 42/49/32 82/69/32
f 82/69/33 42/49/33 43/43/33 83/70/33
f 83/70/34 43/43/34 44/37/34 84/71/34
f 84/71/35 44/37/35 45/31/35 85/72/35
f 85/72/36 45/31/36 46/25/36 86/73/36
f 86/73/37 46/25/37 47/19/37 87/74/37
f 87/74/38 47/19/38 48/13/38 88/75/38
f 88/75/39 48/13/39 49/1/39 89/76/39
f 89/76/40 49/1/40 50/4/40 90/77/40
f 11/62/41 51/63/41 52/57/41 16/56/41
f 16/56/42 52/57/42 53/51/42 19/50/42
f 19/50/43 53/51/43 54/45/43 22/44/43
f 22/44/44 54/45/44 55/39/44 25/38/44
f 25/38/45 55/39/45 56/33/45 28/32/45
f 28/32/46 56/33/46 57/27/46 31/26/46
f 31/26/47 57/27/47 58/21/47 34/20/47
f 34/20/48 58/21/48 59/15/48 37/14/48
f 37/14/49 59/15/49 60/5/49 40/2/49
f 40/2/50 60/5/50 51/8/50 11/3/50
f 12/64/51 61/65/51 62/59/51 15/58/51
f 15/58/52 62/59/52 63/53/52 18/52/52
f 18/52/53 63/53/53 64/47/53 21/46/53
f 21/46/54 64/47/54 65/41/54 24/40/54
f 24/40/55 65/41/55 66/35/55 27/34/55
f 27/34/56 66/35/56 67/29/56 30/28/56
f 30/28/57 67/29/57 68/23/57 33/22/57
f 33/22/58 68/23/58 69/17/58 36/16/58
f 36/16/59 69/17/59 70/9/59 39/6/59
f 39/6/60 70/9/60 61/12/60 12/7/60
f 32/24/61 29/30/61 74/78/61 73/79/61
f 29/30/62 26/36/62 75/80/62 74/78/62
f 26/36/63 23/42/63 76/81/63 75/80/63
f 23/42/64 20/48/64 77/82/64 76/81/64
f 20/48/65 17/54/65 78/83/65 77/82/65
f 17/54/66 14/60/66 79/84/66 78/83/66
f 13/11/67 38/10/67 71/85/67 80/86/67
f 14/60/68 13/66/68 80/87/68 79/84/68
f 38/10/69 35/18/69 72/88/69 71/85/69
f 35/18/70 32/24/70 73/79/70 72/88/70
f 10/89/71 89/76/71 90/77/71 1/90/71
f 9/91/72 88/75/72 89/76/72 10/89/72
f 8/92/73 87/74/73 88/75/73 9/91/73
f 7/93/74 86/73/74 87/74/74 8/92/74
f 6/94/75 85/72/75 86/73/75 7/93/75
f 5/95/76 84/71/76 85/72/76 6/94/76
f 4/96/77 83/70/77 84/71/77 5/95/77
f 3/97/78 82/69/78 83/70/78 4/96/78
f 2/98/79 81/68/79 82/69/79 3/97/79
f 1/99/80 90/67/80 81/68/80 2/98/80
f 76/81/81 77/82/81 117/100/81 116/101/81
f 75/80/82 76/81/82 116/101/82 115/102/82
f 78/83/83 79/84/83 119/103/83 118/104/83
f 73/79/84 74/78/84 114/105/84 113/106/84
f 79/84/85 80/87/85 120/107/85 119/103/85
f 71/85/86 72/88/86 112/108/86 111/109/86
f 80/86/87 71/85/87 111/109/87 120/110/87
f 77/82/88 78/83/88 118/104/88 117/100/88
f 72/88/89 73/79/89 113/106/89 112/108/89
f 74/78/90 75/80/90 115/102/90 114/105/90
f 120/110/91 111/109/91 121/111/91 130/112/91
f 116/101/92 117/100/92 127/113/92 126/114/92
f 113/106/93 114/105/93 124/115/93 123/116/93
f 119/103/94 120/107/94 130/117/94 129/118/94
f 114/105/95 115/102/95 125/119/95 124/115/95
f 111/109/96 112/108/96 122/120/96 121/111/96
f 117/100/97 118/104/97 128/121/97 127/113/97
f 112/108/98 113/106/98 123/116/98 122/120/98
f 118/104/99 119/103/99 129/118/99 128/121/99
f 115/102/100 116/101/100 126/114/100 125/119/100
f 126/114/101 127/113/101 137/122/101 136/123/101
f 123/116/102 124/115/102 134/124/102 133/125/102
f 129/118/103 130/117/103 140/126/103 139/127/103
f 124/115/104 125/119/104 135/128/104 134/124/104
f 121/111/105 122/120/105 132/129/105 131/130/105
f 127/113/106 128/121/106 138/131/106 137/122/106
f 122/120/107 123/116/107 133/125/107 132/129/107
f 128/121/108 129/118/108 139/127/108 138/131/108
f 125/119/109 126/114/109 136/123/109 135/128/109
f 130/112/110 121/111/110 131/130/110 140/132/110
f 133/125/111 134/124/111 144/133/111 143/134/111
f 139/127/112 140/126/112 150/135/112 149/136/112
f 134/124/113 135/128/113 145/137/113 144/133/113
f 131/130/114 132/129/114 142/138/114 141/139/114
f 137/122/115 138/131/115 148/140/115 147/141/115
f 132/129/116 133/125/116 143/134/116 142/138/116
f 138/131/117 139/127/117 149/136/117 148/140/117
f 135/128/118 136/123/118 146/142/118 145/137/118
f 140/132/119 131/130/119 141/139/119 150/143/119
f 136/123/120 137/122/120 147/141/120 146/142/120
usemtl Log
f 102/144/121 101/145/121 97/146/121 96/147/121
f 91/148/122 92/149/122 93/150/122 94/151/122 95/152/122 96/153/122 97/154/122 98/155/122 99/156/122 100/157/122
f 103/158/123 102/144/123 96/147/123 95/159/123
f 104/160/124 103/158/124 95/159/124 94/161/124
f 106/162/125 105/163/125 92/164/125 91/165/125
f 107/166/126 104/160/126 94/161/126 93/167/126
f 105/163/127 107/166/127 93/167/127 92/164/127
f 108/168/128 106/169/128 91/170/128 100/171/128
f 109/172/129 108/168/129 100/171/129 99/173/129
f 110/174/130 109/172/130 99/173/130 98/175/130
f 101/145/131 110/174/131 98/175/131 97/146/131
f 7/93/132 8/92/132 110/174/132 101/145/132
f 8/92/133 9/91/133 109/172/133 110/174/133
f 9/91/134 10/89/134 108/168/134 109/172/134
f 10/89/135 1/90/135 106/169/135 108/168/135
f 2/98/136 3/97/136 107/166/136 105/163/136
f 3/97/137 4/96/137 104/160/137 107/166/137
f 1/99/138 2/98/138 105/163/138 106/162/138
f 4/96/139 5/95/139 103/158/139 104/160/139
f 5/95/140 6/94/140 102/144/140 103/158/140
f 6/94/141 7/93/141 101/145/141 102/144/141
